<svg xmlns="http://www.w3.org/2000/svg" width="946.608" height="632.515" viewBox="0 0 946.608 632.515">
  <path id="Path_239" data-name="Path 239" d="M569.149,50.034c3.247-10.552,12.175-20.263,22.292-26.814,16.987-10.987,40.323-12.9,60.934-4.957,18.379,7.073,34.207,22.988,44.846,44.817a30.413,30.413,0,0,1,9.015-4.029A51.176,51.176,0,0,1,719.4,57.455c16.842,0,36.352,6.87,46.324,20.466,4.406,6,3.566,11.334,2.841,16.031-.435,2.87-.87,5.566-.116,8.465,1.131,4.377,3.653,4.638,10.61,4.261,1.913-.116,3.653-.116,5.71-.232a18.983,18.983,0,0,1,6.61.406c13.219,3.942,15.654,17.19,17.625,27.829.522,2.87,1.044,5.595,1.71,8.03,2.783,10.088,9.421,17.161,20.321,21.655,6.928,2.841,15.1,1.884,23.771.87,6.146-.725,12.552-1.478,18.582-.783,3.624.435,8.088,1.507,10.407,6.2a3.716,3.716,0,0,1,.087,3.044,3.62,3.62,0,0,1-2.261,2.058,42.7,42.7,0,0,1-10.2,1.449,40.669,40.669,0,0,0-9.218,1.246,99.29,99.29,0,0,0-13.567,5.595c-1.334.609-2.638,1.247-3.972,1.826-12.407,5.624-25.684,10.7-39.917,5.769-15.074-5.218-27.916-17.19-37.4-27.075a15.837,15.837,0,0,1-1.623-2.058,8.926,8.926,0,0,0-.986-1.275c-14.262-13.045-44.15-28.264-63.63-13.538-6.609,4.986-11.6,12.233-15.77,18.582-13.48,20.669-32.728,43.135-62.442,34.815a16.5,16.5,0,0,1,2.928,3.363c10.581,16.524,10.755,33.656.464,48.266-7.566,10.726-20.176,19.1-34.323,23.974h-.232c-13.741,4.667-28.96,6-42.469,2.87a56.173,56.173,0,0,1-8.986-2.87h-.2a43.165,43.165,0,0,1-20.2-16.871,56.6,56.6,0,0,1-2.407,10.552,53.137,53.137,0,0,1-2.638,6.32h-.029c-3.653,7.421-9.248,14.726-17.016,22.205-34.554,33.221-86.821,46.933-133.232,34.931a105.378,105.378,0,0,1-18.756-6.841h0c-14.059-6.7-26.5-16.495-38.236-30.148a183.756,183.756,0,0,1-15.219-20.118h-.058a94.623,94.623,0,0,1-12.929-29.018,77.543,77.543,0,0,1,.637-37.164c-16-.522-37.164-4.2-54.064-17.712-12.668-10.117-24.38-27.307-28.583-45.715-18.959,11.654-44.962,10.7-63.253-2.754C126,138.421,120.461,130.217,115.1,122.3c-6.378-9.421-12.378-18.321-22.177-23.22-4.406-2.2-9.624-2.783-15.016-3.189-7.856-.638-12.755,1.565-19.017,4.348-2.725,1.218-5.566,2.464-8.9,3.624-1.015.348-2,.754-2.986,1.131a28.338,28.338,0,0,1-9.943,2.551,42.323,42.323,0,0,1-13.828-1.565c-1.218-.348-2.435-.667-3.653-.986-6.841-1.8-13.943-3.624-18.93-10.813a3.637,3.637,0,0,1,2.9-5.711A11.257,11.257,0,0,1,9.58,90.3a10.216,10.216,0,0,0,1.855.87c13.045,3.479,19.77-4.986,26.409-19.741C45.265,54.962,55.266,39.54,78.08,38.236c18.727-1.1,32.9,8.175,46.585,17.132,6.812,4.435,13.828,9.044,21.278,12.2a43.843,43.843,0,0,0,14.639,3.45c20.524-.087,36.526-16.118,49.6-29.336,3.769-3.8,7.305-7.392,10.7-10.291,1.8-1.565,3.537-3.073,5.218-4.551,14.03-12.32,25.1-22.031,45.309-25.713a71.878,71.878,0,0,1,39.656,4.116c13.016,5.3,20.321,13.886,28.032,22.988.087.087.145.174.232.261a46.029,46.029,0,0,1,6.464-5.8V22.64c1.913-1.478,3.914-2.9,5.827-4.145,24.525-16.2,50.817-3.218,66.616,16.784a87.857,87.857,0,0,1,14.9-13.915C449.077,9.8,471.282,3.624,492.386,3.624c13.683,0,26.9,2.609,37.569,8,15.8,8,29.366,21.365,39.222,38.439Zm-213.56-25.51a79.705,79.705,0,0,0-9.769,7.566v.058a16.976,16.976,0,0,0-2,2.174,3.583,3.583,0,0,1-1.16,3.566,3.628,3.628,0,0,1-5.131-.348c-1.391-1.594-2.725-3.16-4.029-4.7-7.45-8.755-13.886-16.292-25.249-20.959a65.429,65.429,0,0,0-35.6-3.682c-18.2,3.334-28.09,12-41.8,24.032-1.71,1.507-3.45,3.015-5.247,4.58-3.16,2.725-6.609,6.233-10.291,9.914-3.015,3.044-6.232,6.291-9.711,9.508.841-.464,1.652-.9,2.493-1.362,13.132-7.16,26.728-14.581,41.222-16.7a85.294,85.294,0,0,1,12.059-.87c18.176,0,35.337,6.03,47.484,16.987a3.653,3.653,0,0,1-4.9,5.421c-13.219-11.943-33.25-17.277-53.6-14.291-13.219,1.942-26.206,9.016-38.787,15.886C195.136,70.268,178.294,79.4,159.886,78.24a44.244,44.244,0,0,1-8.581-.812,3.645,3.645,0,0,1-1.768-.957,52.106,52.106,0,0,1-6.58-2.261c-8.03-3.421-15.335-8.175-22.408-12.813C107.243,52.73,94.632,44.526,78.341,45.454c-17.944,1.015-26.322,11.8-34,28.9-3.276,7.276-9.247,20.553-21.394,24,.725.2,1.449.377,2.174.609a36.751,36.751,0,0,0,11.6,1.275,22.374,22.374,0,0,0,7.479-2.029c1.1-.435,2.174-.87,3.334-1.275,3.044-1.044,5.711-2.232,8.32-3.392,6.609-2.928,12.842-5.682,22.524-4.957,5.914.464,12.146,1.16,17.712,3.942,11.479,5.769,18.321,15.857,24.93,25.655,5.247,7.769,10.2,15.074,17.277,20.292,16.756,12.32,40.99,12.668,57.6.812a56.81,56.81,0,0,1,.232-14.2,51.059,51.059,0,0,1,18.495-32.061c8.871-7.073,22.408-10.9,35.686-10.9a57.939,57.939,0,0,1,22.089,4.087c11.914,5.015,19.162,14.378,20.379,26.322,1.681,16.524-10,27.684-21.568,31.076-13.074,3.827-25.51-1.565-31.685-13.77a3.643,3.643,0,0,1,6.494-3.3c5.479,10.813,15.567,12.262,23.133,10.059,8.755-2.551,17.6-10.958,16.35-23.336-1.188-11.769-9.334-17.567-15.944-20.35-15.306-6.435-38.381-3.8-50.412,5.769A43.749,43.749,0,0,0,203.311,126.1c-3.45,23.075,10.987,48.15,27.018,60.963,12.668,10.117,30.989,15.77,51.716,16.118a87.3,87.3,0,0,1,27.539-38.816,96.9,96.9,0,0,1,36.062-17.8h0a110.415,110.415,0,0,1,51.542-.812c3.218.725,6.291,1.594,9.306,2.551a70.377,70.377,0,0,1-7.827-13.828c-12.117-28.583-5.1-66.413,14.755-93.46C399.768,22.872,376.635,10.436,355.5,24.408Zm81.777,2.7A80.074,80.074,0,0,0,422.06,41.975a3.591,3.591,0,0,1-1.537,2.841,4.644,4.644,0,0,1-.87.377c-18.379,25.046-25.22,60.586-14.2,86.531a64.014,64.014,0,0,0,16.61,23.249,70.825,70.825,0,0,1,12.784,8.841c17.016,9.045,37.453,11.016,55.368,8.726,15.77-2.029,36.757-11.248,43.976-30.554,7.6-20.35-5.015-41.918-20.756-51.861-10.088-6.378-24.148-7.914-34.207-3.769a21,21,0,0,0-13.1,15.538c-2.29,10.059,2.841,22.582,14.118,25.22,5.363,1.246,10.494.7,13.074-1.449,1.565-1.275,2.261-3.218,2.145-5.885a5.787,5.787,0,0,0-2.58-4.261,4.128,4.128,0,0,0-3.537-.667,3.64,3.64,0,1,1-2.406-6.87,11.11,11.11,0,0,1,10.03,1.507,13.1,13.1,0,0,1,5.8,9.972c.29,6.262-2.435,9.885-4.754,11.8-4.406,3.653-11.653,4.754-19.393,2.928-14.06-3.3-23.017-18.843-19.567-33.946A28.33,28.33,0,0,1,476.5,79.6c12.117-4.986,28.931-3.218,40.874,4.348,18.147,11.48,32.641,36.613,23.684,60.586-8.32,22.35-32.061,32.96-49.861,35.221-17.77,2.29-32.931.609-45.715-3.508,13.74,22.205,9.769,51.832-3.537,69.515-14,18.64-35.424,22.959-57.34,11.538-7.653-4-16.118-12.349-17.8-22.031a18.715,18.715,0,0,1,5.16-16.437,3.651,3.651,0,0,1,5.334,4.986,11.388,11.388,0,0,0-3.276,10.233c1.217,7.189,8.117,13.741,13.972,16.784,18.756,9.769,36.294,6.32,48.121-9.45,13.364-17.8,16.118-49.223-2.725-68.935-.869-.928-1.826-1.8-2.783-2.667a76.255,76.255,0,0,1-12.146-8.523,86.237,86.237,0,0,0-22.756-8.32,103.081,103.081,0,0,0-49.89,1.217h0a89.024,89.024,0,0,0-31.569,15.973C291.147,188.6,279.957,219.1,286.393,246c2.7,11.306,8.291,21.626,14.552,30.612H301a191.692,191.692,0,0,0,12.059,15.451c10.175,11.856,20.872,20.611,32.757,26.786h0a95.536,95.536,0,0,0,20.5,7.885c44,11.393,93.6-1.623,126.332-33.105a78.909,78.909,0,0,0,13.828-17.016h.029a47.773,47.773,0,0,0,3.942-8.552c4.493-13.306,2.261-28.38.29-41.686a3.673,3.673,0,0,1,3.044-4.145,3.621,3.621,0,0,1,4.146,3.015c1.8,11.19,2.319,14.436,2.493,15.48h0c3.421,21.278,18.408,29.047,30.38,31.8,24.466,5.653,56.267-5.334,69.428-24,8.609-12.2,8.378-26.09-.638-40.149a16.655,16.655,0,0,0-3.913-3.711,29.839,29.839,0,0,1-3.884-3.392,8.443,8.443,0,0,0-.87-.783c-1.942-1.739-5.566-4.986-3.942-8.958a3.635,3.635,0,0,1,2.87-2.232c2.058-.29,4.464.58,7.624,1.855.551.2,1.014.406,1.391.522a24.532,24.532,0,0,1,2.522,1.1,15.45,15.45,0,0,0,2,.87c25.742,8.059,42.005-10.291,55.745-31.366,4.493-6.9,9.914-14.726,17.48-20.437,23.191-17.538,56.325-1.246,72.935,13.973a14.931,14.931,0,0,1,2.058,2.464,8.8,8.8,0,0,0,.9,1.159c8.929,9.276,20.93,20.524,34.554,25.22,11.711,4.058,23.017-.319,34.525-5.537,1.3-.58,2.58-1.189,3.885-1.8a131.237,131.237,0,0,1,12.176-5.189c-.667.087-1.363.145-2.058.232-9.219,1.1-18.756,2.232-27.424-1.362-12.929-5.334-21.191-14.233-24.582-26.467-.754-2.725-1.276-5.595-1.855-8.639-2.174-11.8-4.233-19.712-12.552-22.176a14.51,14.51,0,0,0-4.116-.087c-2.058.116-3.827.116-5.74.232-6.116.319-15.335.841-18.06-9.711-1.131-4.348-.551-8.117-.029-11.422.638-4.087,1.1-7.044-1.508-10.61C748.733,67.167,724.122,61.717,708,65.978a23.391,23.391,0,0,0-17.19,25.191c1.1,9.305,8.059,15.016,18.611,15.248a13.2,13.2,0,0,0,9.509-4c3.189-3.392,4.464-8.668,3.8-15.625a3.663,3.663,0,0,1,3.3-3.971,3.722,3.722,0,0,1,3.972,3.3c.84,9.131-1.073,16.292-5.74,21.278a20.414,20.414,0,0,1-15.016,6.32c-17.075-.377-24.467-11.451-25.684-21.684a31.429,31.429,0,0,1,7.856-24.206C681.6,46.788,666.782,31.539,649.65,24.959c-18.495-7.1-39.309-5.479-54.354,4.261-9.248,6-23.133,19.364-19.771,33.134a63.79,63.79,0,0,1,6.812-.667c.87-.029,1.739-.058,2.609-.058,20.2,0,39.6,9.073,59.224,27.655a3.65,3.65,0,1,1-5.015,5.3c-19.219-18.234-37.192-26.38-56.528-25.626-9.045.348-16.929,2.7-22.756,6.783-6.638,4.667-10.784,11.943-10.812,18.959a3.631,3.631,0,0,1-3.653,3.624h0a3.65,3.65,0,0,1-3.624-3.653c.029-9.363,5.363-18.9,13.915-24.9a42.373,42.373,0,0,1,12.262-5.8c-9.305-20.843-23.828-37.105-41.425-46.005C501.6,5.363,461.571,9.45,437.308,27.1Z" transform="matrix(-0.934, 0.358, -0.358, -0.934, 946.608, 315.66)" fill="#fff" opacity="0.2"/>
</svg>
